<svg width="44" height="47" viewBox="0 0 44 47" fill="none" xmlns="http://www.w3.org/2000/svg">
<g filter="url(#filter0_d_5_4)">
<path d="M0.716 20V0.629998H4.746V16.49H12.936V20H0.716ZM24.1249 20.312C22.6689 20.312 21.3169 20.0607 20.0689 19.558C18.8209 19.0553 17.7289 18.3533 16.7929 17.452C15.8743 16.5333 15.1549 15.4673 14.6349 14.254C14.1149 13.0407 13.8549 11.7233 13.8549 10.302C13.8549 8.88067 14.1063 7.56333 14.6089 6.35C15.1289 5.13667 15.8483 4.07933 16.7669 3.178C17.7029 2.27667 18.7949 1.57467 20.0429 1.072C21.2909 0.569332 22.6516 0.317999 24.1249 0.317999C25.5983 0.317999 26.9589 0.569332 28.2069 1.072C29.4549 1.57467 30.5383 2.27667 31.4569 3.178C32.3929 4.07933 33.1123 5.13667 33.6149 6.35C34.1349 7.56333 34.3949 8.88067 34.3949 10.302C34.3949 11.7233 34.1349 13.0407 33.6149 14.254C33.0949 15.4673 32.3669 16.5333 31.4309 17.452C30.5123 18.3533 29.4289 19.0553 28.1809 19.558C26.9329 20.0607 25.5809 20.312 24.1249 20.312ZM24.1249 16.672C25.0089 16.672 25.8236 16.516 26.5689 16.204C27.3316 15.892 27.9989 15.4587 28.5709 14.904C29.1429 14.332 29.5849 13.656 29.8969 12.876C30.2089 12.096 30.3649 11.238 30.3649 10.302C30.3649 9.366 30.2089 8.51667 29.8969 7.754C29.5849 6.974 29.1429 6.298 28.5709 5.726C27.9989 5.154 27.3316 4.72067 26.5689 4.426C25.8236 4.114 25.0089 3.958 24.1249 3.958C23.2409 3.958 22.4176 4.114 21.6549 4.426C20.9096 4.72067 20.2509 5.154 19.6789 5.726C19.1069 6.298 18.6649 6.974 18.3529 7.754C18.0409 8.51667 17.8849 9.366 17.8849 10.302C17.8849 11.238 18.0409 12.096 18.3529 12.876C18.6649 13.656 19.1069 14.332 19.6789 14.904C20.2509 15.4587 20.9096 15.892 21.6549 16.204C22.4176 16.516 23.2409 16.672 24.1249 16.672ZM10.024 44.312C8.63733 44.312 7.346 44.0607 6.15 43.558C4.954 43.0553 3.90533 42.3533 3.004 41.452C2.10267 40.5507 1.40067 39.4933 0.898 38.28C0.395333 37.0667 0.144 35.7407 0.144 34.302C0.144 32.8633 0.386667 31.5373 0.872 30.324C1.35733 29.0933 2.042 28.036 2.926 27.152C3.81 26.2507 4.84133 25.5573 6.02 25.072C7.216 24.5693 8.516 24.318 9.92 24.318C11.324 24.318 12.5807 24.552 13.69 25.02C14.8167 25.488 15.77 26.112 16.55 26.892C17.33 27.672 17.8847 28.5387 18.214 29.492L14.652 31.208C14.3227 30.272 13.742 29.5007 12.91 28.894C12.0953 28.27 11.0987 27.958 9.92 27.958C8.776 27.958 7.77067 28.2267 6.904 28.764C6.03733 29.3013 5.36133 30.0467 4.876 31C4.408 31.936 4.174 33.0367 4.174 34.302C4.174 35.5673 4.42533 36.6767 4.928 37.63C5.43067 38.5833 6.11533 39.3287 6.982 39.866C7.866 40.4033 8.88 40.672 10.024 40.672C10.908 40.672 11.7313 40.5073 12.494 40.178C13.274 39.8313 13.898 39.3373 14.366 38.696C14.8513 38.0547 15.094 37.2833 15.094 36.382V34.77L16.94 36.33H9.92V32.95H19.124V35.004C19.124 36.5813 18.864 37.9593 18.344 39.138C17.824 40.2993 17.122 41.27 16.238 42.05C15.3713 42.8127 14.392 43.3847 13.3 43.766C12.2253 44.13 11.1333 44.312 10.024 44.312ZM31.3105 44.312C29.8545 44.312 28.5025 44.0607 27.2545 43.558C26.0065 43.0553 24.9145 42.3533 23.9785 41.452C23.0598 40.5333 22.3405 39.4673 21.8205 38.254C21.3005 37.0407 21.0405 35.7233 21.0405 34.302C21.0405 32.8807 21.2918 31.5633 21.7945 30.35C22.3145 29.1367 23.0338 28.0793 23.9525 27.178C24.8885 26.2767 25.9805 25.5747 27.2285 25.072C28.4765 24.5693 29.8372 24.318 31.3105 24.318C32.7838 24.318 34.1445 24.5693 35.3925 25.072C36.6405 25.5747 37.7238 26.2767 38.6425 27.178C39.5785 28.0793 40.2978 29.1367 40.8005 30.35C41.3205 31.5633 41.5805 32.8807 41.5805 34.302C41.5805 35.7233 41.3205 37.0407 40.8005 38.254C40.2805 39.4673 39.5525 40.5333 38.6165 41.452C37.6978 42.3533 36.6145 43.0553 35.3665 43.558C34.1185 44.0607 32.7665 44.312 31.3105 44.312ZM31.3105 40.672C32.1945 40.672 33.0092 40.516 33.7545 40.204C34.5172 39.892 35.1845 39.4587 35.7565 38.904C36.3285 38.332 36.7705 37.656 37.0825 36.876C37.3945 36.096 37.5505 35.238 37.5505 34.302C37.5505 33.366 37.3945 32.5167 37.0825 31.754C36.7705 30.974 36.3285 30.298 35.7565 29.726C35.1845 29.154 34.5172 28.7207 33.7545 28.426C33.0092 28.114 32.1945 27.958 31.3105 27.958C30.4265 27.958 29.6032 28.114 28.8405 28.426C28.0952 28.7207 27.4365 29.154 26.8645 29.726C26.2925 30.298 25.8505 30.974 25.5385 31.754C25.2265 32.5167 25.0705 33.366 25.0705 34.302C25.0705 35.238 25.2265 36.096 25.5385 36.876C25.8505 37.656 26.2925 38.332 26.8645 38.904C27.4365 39.4587 28.0952 39.892 28.8405 40.204C29.6032 40.516 30.4265 40.672 31.3105 40.672Z" fill="#F17305"/>
<path d="M0.716 20H-0.284V21H0.716V20ZM0.716 0.629998V-0.370002H-0.284V0.629998H0.716ZM4.746 0.629998H5.746V-0.370002H4.746V0.629998ZM4.746 16.49H3.746V17.49H4.746V16.49ZM12.936 16.49H13.936V15.49H12.936V16.49ZM12.936 20V21H13.936V20H12.936ZM1.716 20V0.629998H-0.284V20H1.716ZM0.716 1.63H4.746V-0.370002H0.716V1.63ZM3.746 0.629998V16.49H5.746V0.629998H3.746ZM4.746 17.49H12.936V15.49H4.746V17.49ZM11.936 16.49V20H13.936V16.49H11.936ZM12.936 19H0.716V21H12.936V19ZM20.0689 19.558L20.4425 18.6304L20.0689 19.558ZM16.7929 17.452L16.0858 18.1591L16.0925 18.1658L16.0993 18.1723L16.7929 17.452ZM14.6349 14.254L15.5541 13.8601L14.6349 14.254ZM14.6089 6.35L13.6897 5.95605L13.6851 5.96726L14.6089 6.35ZM16.7669 3.178L16.0733 2.45765L16.0666 2.46419L16.7669 3.178ZM28.2069 1.072L27.8333 1.99958L27.8333 1.99958L28.2069 1.072ZM31.4569 3.178L30.7566 3.89184L30.7633 3.89832L31.4569 3.178ZM33.6149 6.35L32.691 6.73277L32.6958 6.74392L33.6149 6.35ZM33.6149 14.254L32.6958 13.8601L33.6149 14.254ZM31.4309 17.452L32.1313 18.1658L32.1314 18.1657L31.4309 17.452ZM28.1809 19.558L28.5545 20.4856L28.1809 19.558ZM26.5689 16.204L26.1903 15.2784L26.1828 15.2816L26.5689 16.204ZM28.5709 14.904L29.2671 15.6219L29.2726 15.6165L29.278 15.6111L28.5709 14.904ZM29.8969 12.876L28.9685 12.5046V12.5046L29.8969 12.876ZM29.8969 7.754L28.9684 8.1254L28.9714 8.13263L29.8969 7.754ZM26.5689 4.426L26.1828 5.34844L26.1956 5.3538L26.2085 5.3588L26.5689 4.426ZM21.6549 4.426L22.0226 5.35602L22.0336 5.35155L21.6549 4.426ZM19.6789 5.726L18.9718 5.01889L19.6789 5.726ZM18.3529 7.754L19.2785 8.13264L19.2814 8.12539L18.3529 7.754ZM18.3529 12.876L17.4245 13.2474L18.3529 12.876ZM19.6789 14.904L18.9718 15.6111L18.9773 15.6165L18.9828 15.6219L19.6789 14.904ZM21.6549 16.204L21.2688 17.1265L21.2763 17.1295L21.6549 16.204ZM24.1249 19.312C22.7864 19.312 21.5623 19.0814 20.4425 18.6304L19.6953 20.4856C21.0715 21.0399 22.5515 21.312 24.1249 21.312V19.312ZM20.4425 18.6304C19.3092 18.1739 18.3269 17.5409 17.4866 16.7317L16.0993 18.1723C17.131 19.1658 18.3326 19.9367 19.6953 20.4856L20.4425 18.6304ZM17.5 16.7449C16.6728 15.9177 16.0248 14.9584 15.5541 13.8601L13.7158 14.6479C14.2851 15.9763 15.0757 17.149 16.0858 18.1591L17.5 16.7449ZM15.5541 13.8601C15.0914 12.7805 14.8549 11.5984 14.8549 10.302H12.8549C12.8549 11.8482 13.1385 13.3008 13.7158 14.6479L15.5541 13.8601ZM14.8549 10.302C14.8549 9.00112 15.0844 7.81506 15.5328 6.73274L13.6851 5.96726C13.1281 7.31161 12.8549 8.76021 12.8549 10.302H14.8549ZM15.5281 6.74392C15.9981 5.64731 16.6441 4.69943 17.4673 3.89181L16.0666 2.46419C15.0524 3.45923 14.2598 4.62602 13.6898 5.95608L15.5281 6.74392ZM17.4606 3.89832C18.3009 3.08912 19.2832 2.45606 20.4165 1.99958L19.6693 0.144413C18.3066 0.693274 17.105 1.46422 16.0733 2.45768L17.4606 3.89832ZM20.4165 1.99958C21.535 1.54911 22.7674 1.318 24.1249 1.318V-0.682001C22.5358 -0.682001 21.0469 -0.410446 19.6693 0.144413L20.4165 1.99958ZM24.1249 1.318C25.4825 1.318 26.7149 1.54911 27.8333 1.99958L28.5805 0.144413C27.203 -0.410446 25.7141 -0.682001 24.1249 -0.682001V1.318ZM27.8333 1.99958C28.9651 2.45542 29.936 3.08667 30.7566 3.89181L32.1573 2.46419C31.1406 1.46666 29.9448 0.693908 28.5805 0.144413L27.8333 1.99958ZM30.7633 3.89832C31.5991 4.70312 32.2405 5.64518 32.6911 6.73274L34.5388 5.96726C33.984 4.62816 33.1868 3.45554 32.1506 2.45768L30.7633 3.89832ZM32.6958 6.74392C33.1585 7.82347 33.3949 9.00558 33.3949 10.302H35.3949C35.3949 8.75575 35.1114 7.3032 34.5341 5.95608L32.6958 6.74392ZM33.3949 10.302C33.3949 11.5984 33.1585 12.7805 32.6958 13.8601L34.5341 14.6479C35.1114 13.3008 35.3949 11.8482 35.3949 10.302H33.3949ZM32.6958 13.8601C32.2268 14.9544 31.5728 15.9116 30.7305 16.7383L32.1314 18.1657C33.1611 17.1551 33.9631 15.9803 34.5341 14.6479L32.6958 13.8601ZM30.7306 16.7382C29.91 17.5433 28.9391 18.1746 27.8073 18.6304L28.5545 20.4856C29.9188 19.9361 31.1146 19.1633 32.1313 18.1658L30.7306 16.7382ZM27.8073 18.6304C26.6875 19.0814 25.4635 19.312 24.1249 19.312V21.312C25.6984 21.312 27.1783 21.0399 28.5545 20.4856L27.8073 18.6304ZM24.1249 17.672C25.129 17.672 26.0764 17.4943 26.9551 17.1264L26.1828 15.2816C25.5708 15.5377 24.8889 15.672 24.1249 15.672V17.672ZM26.9476 17.1295C27.8242 16.7709 28.6003 16.2685 29.2671 15.6219L27.8748 14.1861C27.3976 14.6489 26.839 15.0131 26.1903 15.2785L26.9476 17.1295ZM29.278 15.6111C29.9495 14.9396 30.4651 14.1482 30.8254 13.2474L28.9685 12.5046C28.7048 13.1638 28.3364 13.7244 27.8638 14.1969L29.278 15.6111ZM30.8254 13.2474C31.1898 12.3365 31.3649 11.3507 31.3649 10.302H29.3649C29.3649 11.1253 29.2281 11.8555 28.9685 12.5046L30.8254 13.2474ZM31.3649 10.302C31.3649 9.25369 31.1899 8.27345 30.8225 7.37537L28.9714 8.13263C29.228 8.75989 29.3649 9.47831 29.3649 10.302H31.3649ZM30.8254 7.38261C30.4651 6.48182 29.9495 5.69035 29.278 5.01889L27.8638 6.43311C28.3364 6.90565 28.7048 7.46618 28.9685 8.12539L30.8254 7.38261ZM29.278 5.01889C28.6064 4.34723 27.8206 3.83755 26.9293 3.4932L26.2085 5.3588C26.8426 5.60378 27.3915 5.96076 27.8638 6.43311L29.278 5.01889ZM26.9551 3.50356C26.0764 3.13573 25.129 2.958 24.1249 2.958V4.958C24.8889 4.958 25.5708 5.09227 26.1828 5.34844L26.9551 3.50356ZM24.1249 2.958C23.1206 2.958 22.1677 3.1358 21.2763 3.50045L22.0336 5.35155C22.6675 5.0922 23.3612 4.958 24.1249 4.958V2.958ZM21.2873 3.49604C20.4135 3.84147 19.6396 4.3511 18.9718 5.01889L20.386 6.43311C20.8623 5.9569 21.4057 5.59986 22.0226 5.35596L21.2873 3.49604ZM18.9718 5.01889C18.3004 5.69035 17.7848 6.48182 17.4245 7.38261L19.2814 8.12539C19.5451 7.46618 19.9135 6.90565 20.386 6.43311L18.9718 5.01889ZM17.4274 7.37537C17.06 8.27345 16.8849 9.25369 16.8849 10.302H18.8849C18.8849 9.47831 19.0219 8.75989 19.2785 8.13263L17.4274 7.37537ZM16.8849 10.302C16.8849 11.3507 17.0601 12.3365 17.4245 13.2474L19.2814 12.5046C19.0218 11.8555 18.8849 11.1253 18.8849 10.302H16.8849ZM17.4245 13.2474C17.7848 14.1482 18.3004 14.9396 18.9718 15.6111L20.386 14.1969C19.9135 13.7244 19.5451 13.1638 19.2814 12.5046L17.4245 13.2474ZM18.9828 15.6219C19.6457 16.2648 20.4099 16.7669 21.2688 17.1264L22.0411 15.2816C21.4093 15.0171 20.8561 14.6526 20.3751 14.1861L18.9828 15.6219ZM21.2763 17.1295C22.1677 17.4942 23.1206 17.672 24.1249 17.672V15.672C23.3612 15.672 22.6675 15.5378 22.0336 15.2785L21.2763 17.1295ZM6.15 43.558L5.76254 44.4799L6.15 43.558ZM3.004 41.452L3.71111 40.7449L3.004 41.452ZM0.898 38.28L1.82186 37.8973H1.82186L0.898 38.28ZM0.872 30.324L1.80049 30.6954L1.80227 30.6909L0.872 30.324ZM2.926 27.152L3.63314 27.8591L3.63994 27.8522L2.926 27.152ZM6.02 25.072L6.40076 25.9967L6.40746 25.9939L6.02 25.072ZM13.69 25.02L13.3013 25.9414L13.3064 25.9435L13.69 25.02ZM18.214 29.492L18.648 30.3929L19.4498 30.0067L19.1592 29.1655L18.214 29.492ZM14.652 31.208L13.7087 31.5399L14.0795 32.5938L15.086 32.1089L14.652 31.208ZM12.91 28.894L12.3019 29.6879L12.3113 29.6951L12.3208 29.702L12.91 28.894ZM6.904 28.764L7.43094 29.6139L6.904 28.764ZM4.876 31L3.98481 30.5463L3.98157 30.5528L4.876 31ZM4.928 37.63L5.81257 37.1636L4.928 37.63ZM6.982 39.866L6.45504 40.7159L6.46258 40.7205L6.982 39.866ZM12.494 40.178L12.8905 41.0961L12.9001 41.0918L12.494 40.178ZM14.366 38.696L13.5686 38.0926L13.5633 38.0995L13.5582 38.1065L14.366 38.696ZM15.094 34.77L15.7395 34.0062L14.094 32.6157V34.77H15.094ZM16.94 36.33V37.33H19.6726L17.5855 35.5662L16.94 36.33ZM9.92 36.33H8.92V37.33H9.92V36.33ZM9.92 32.95V31.95H8.92V32.95H9.92ZM19.124 32.95H20.124V31.95H19.124V32.95ZM18.344 39.138L19.2567 39.5467L19.2589 39.5416L18.344 39.138ZM16.238 42.05L16.8986 42.8007L16.8996 42.7998L16.238 42.05ZM13.3 43.766L13.6208 44.7132L13.6297 44.7101L13.3 43.766ZM10.024 43.312C8.76112 43.312 7.60252 43.0837 6.53746 42.6361L5.76254 44.4799C7.08948 45.0376 8.51355 45.312 10.024 45.312V43.312ZM6.53746 42.6361C5.45874 42.1827 4.51916 41.5529 3.71111 40.7449L2.29689 42.1591C3.29151 43.1537 4.44926 43.9279 5.76254 44.4799L6.53746 42.6361ZM3.71111 40.7449C2.90545 39.9392 2.27583 38.993 1.82186 37.8973L-0.0258558 38.6627C0.525508 39.9936 1.29988 41.1621 2.29689 42.1591L3.71111 40.7449ZM1.82186 37.8973C1.37407 36.8164 1.144 35.6219 1.144 34.302H-0.856C-0.856 35.8594 -0.583399 37.3169 -0.0258558 38.6627L1.82186 37.8973ZM1.144 34.302C1.144 32.9777 1.36694 31.7792 1.80048 30.6954L-0.0564765 29.9526C-0.59361 31.2954 -0.856 32.749 -0.856 34.302H1.144ZM1.80227 30.6909C2.2403 29.5802 2.8516 28.6406 3.63311 27.8591L2.21889 26.4449C1.2324 27.4314 0.474369 28.6065 -0.0582728 29.9571L1.80227 30.6909ZM3.63994 27.8522C4.42827 27.0484 5.34594 26.431 6.40075 25.9967L5.63925 24.1473C4.33672 24.6837 3.19173 25.4529 2.21206 26.4518L3.63994 27.8522ZM6.40746 25.9939C7.47101 25.5469 8.63802 25.318 9.92 25.318V23.318C8.39398 23.318 6.96099 23.5918 5.63254 24.1501L6.40746 25.9939ZM9.92 25.318C11.2124 25.318 12.3337 25.5331 13.3013 25.9414L14.0787 24.0986C12.8277 23.5709 11.4356 23.318 9.92 23.318V25.318ZM13.3064 25.9435C14.3249 26.3666 15.1649 26.9211 15.8429 27.5991L17.2571 26.1849C16.3751 25.3029 15.3084 24.6094 14.0736 24.0965L13.3064 25.9435ZM15.8429 27.5991C16.5259 28.2821 16.9935 29.0215 17.2688 29.8185L19.1592 29.1655C18.7759 28.0559 18.1341 27.0619 17.2571 26.1849L15.8429 27.5991ZM17.78 28.5911L14.218 30.3071L15.086 32.1089L18.648 30.3929L17.78 28.5911ZM15.5953 30.8761C15.1962 29.7417 14.4881 28.8071 13.4992 28.086L12.3208 29.702C12.9959 30.1942 13.4492 30.8023 13.7087 31.5399L15.5953 30.8761ZM13.5181 28.1001C12.5036 27.3231 11.2844 26.958 9.92 26.958V28.958C10.913 28.958 11.6871 29.2169 12.3019 29.6879L13.5181 28.1001ZM9.92 26.958C8.61314 26.958 7.4207 27.267 6.37706 27.9141L7.43094 29.6139C8.12064 29.1863 8.93887 28.958 9.92 28.958V26.958ZM6.37706 27.9141C5.34728 28.5526 4.54884 29.4385 3.98484 30.5463L5.76716 31.4537C6.17383 30.6549 6.72739 30.0501 7.43094 29.6139L6.37706 27.9141ZM3.98157 30.5528C3.4311 31.6537 3.174 32.9135 3.174 34.302H5.174C5.174 33.1599 5.3849 32.2183 5.77043 31.4472L3.98157 30.5528ZM3.174 34.302C3.174 35.7016 3.45277 36.9762 4.04343 38.0964L5.81257 37.1636C5.3979 36.3771 5.174 35.4331 5.174 34.302H3.174ZM4.04343 38.0964C4.62416 39.1978 5.42849 40.0794 6.45506 40.7159L7.50894 39.0161C6.80217 38.5779 6.23717 37.9689 5.81257 37.1636L4.04343 38.0964ZM6.46258 40.7205C7.51937 41.3629 8.71679 41.672 10.024 41.672V39.672C9.04321 39.672 8.21263 39.4438 7.50142 39.0115L6.46258 40.7205ZM10.024 41.672C11.0355 41.672 11.9947 41.4829 12.8904 41.0961L12.0976 39.2599C11.468 39.5318 10.7805 39.672 10.024 39.672V41.672ZM12.9001 41.0918C13.8277 40.6796 14.5949 40.0788 15.1738 39.2855L13.5582 38.1065C13.2011 38.5959 12.7203 38.9831 12.0879 39.2642L12.9001 41.0918ZM15.1634 39.2994C15.7959 38.4636 16.094 37.4735 16.094 36.382H14.094C14.094 37.0931 13.9067 37.6457 13.5686 38.0926L15.1634 39.2994ZM16.094 36.382V34.77H14.094V36.382H16.094ZM14.4485 35.5338L16.2945 37.0938L17.5855 35.5662L15.7395 34.0062L14.4485 35.5338ZM16.94 35.33H9.92V37.33H16.94V35.33ZM10.92 36.33V32.95H8.92V36.33H10.92ZM9.92 33.95H19.124V31.95H9.92V33.95ZM18.124 32.95V35.004H20.124V32.95H18.124ZM18.124 35.004C18.124 36.4728 17.8819 37.708 17.4291 38.7344L19.2589 39.5416C19.8461 38.2106 20.124 36.6899 20.124 35.004H18.124ZM17.4313 38.7293C16.965 39.7708 16.345 40.622 15.5764 41.3002L16.8996 42.7998C17.899 41.918 18.683 40.8279 19.2567 39.5467L17.4313 38.7293ZM15.5774 41.2993C14.8077 41.9766 13.9408 42.483 12.9703 42.8219L13.6297 44.7101C14.8432 44.2863 15.935 43.6487 16.8986 42.8007L15.5774 41.2993ZM12.9792 42.8189C12.0055 43.1487 11.0217 43.312 10.024 43.312V45.312C11.2449 45.312 12.4452 45.1113 13.6208 44.7131L12.9792 42.8189ZM27.2545 43.558L27.6281 42.6304L27.2545 43.558ZM23.9785 41.452L23.2714 42.1591L23.278 42.1658L23.2848 42.1723L23.9785 41.452ZM21.8205 38.254L22.7396 37.8601L21.8205 38.254ZM21.7945 30.35L20.8753 29.9561L20.8706 29.9673L21.7945 30.35ZM23.9525 27.178L23.2588 26.4576L23.2521 26.4642L23.9525 27.178ZM35.3925 25.072L35.0189 25.9996L35.3925 25.072ZM38.6425 27.178L37.9421 27.8918L37.9488 27.8983L38.6425 27.178ZM40.8005 30.35L39.8766 30.7328L39.8813 30.7439L40.8005 30.35ZM40.8005 38.254L39.8813 37.8601L40.8005 38.254ZM38.6165 41.452L39.3168 42.1658L39.317 42.1657L38.6165 41.452ZM35.3665 43.558L35.7401 44.4856L35.3665 43.558ZM33.7545 40.204L33.3758 39.2784L33.3683 39.2816L33.7545 40.204ZM35.7565 38.904L36.4526 39.6219L36.4582 39.6165L36.4636 39.6111L35.7565 38.904ZM37.0825 36.876L36.154 36.5046L37.0825 36.876ZM37.0825 31.754L36.154 32.1254L36.1569 32.1326L37.0825 31.754ZM33.7545 28.426L33.3683 29.3484L33.3811 29.3538L33.3941 29.3588L33.7545 28.426ZM28.8405 28.426L29.2082 29.356L29.2191 29.3515L28.8405 28.426ZM26.8645 29.726L26.1574 29.0189V29.0189L26.8645 29.726ZM25.5385 31.754L26.4641 32.1326L26.467 32.1254L25.5385 31.754ZM25.5385 36.876L24.61 37.2474L25.5385 36.876ZM26.8645 38.904L26.1574 39.6111L26.1628 39.6165L26.1683 39.6219L26.8645 38.904ZM28.8405 40.204L28.4543 41.1265L28.4619 41.1295L28.8405 40.204ZM31.3105 43.312C29.9719 43.312 28.7479 43.0814 27.6281 42.6304L26.8809 44.4856C28.2571 45.0399 29.7371 45.312 31.3105 45.312V43.312ZM27.6281 42.6304C26.4948 42.1739 25.5125 41.5409 24.6721 40.7317L23.2848 42.1723C24.3165 43.1658 25.5182 43.9367 26.8809 44.4856L27.6281 42.6304ZM24.6856 40.7449C23.8584 39.9177 23.2103 38.9584 22.7396 37.8601L20.9013 38.6479C21.4706 39.9763 22.2613 41.149 23.2714 42.1591L24.6856 40.7449ZM22.7396 37.8601C22.277 36.7805 22.0405 35.5984 22.0405 34.302H20.0405C20.0405 35.8482 20.324 37.3008 20.9013 38.6479L22.7396 37.8601ZM22.0405 34.302C22.0405 33.0011 22.27 31.8151 22.7183 30.7327L20.8706 29.9673C20.3137 31.3116 20.0405 32.7602 20.0405 34.302H22.0405ZM22.7136 30.7439C23.1836 29.6473 23.8297 28.6994 24.6528 27.8918L23.2521 26.4642C22.238 27.4592 21.4454 28.626 20.8753 29.9561L22.7136 30.7439ZM24.6461 27.8983C25.4865 27.0891 26.4688 26.4561 27.6021 25.9996L26.8549 24.1444C25.4922 24.6933 24.2905 25.4642 23.2588 26.4577L24.6461 27.8983ZM27.6021 25.9996C28.7205 25.5491 29.953 25.318 31.3105 25.318V23.318C29.7213 23.318 28.2325 23.5896 26.8549 24.1444L27.6021 25.9996ZM31.3105 25.318C32.668 25.318 33.9005 25.5491 35.0189 25.9996L35.7661 24.1444C34.3885 23.5896 32.8996 23.318 31.3105 23.318V25.318ZM35.0189 25.9996C36.1506 26.4554 37.1215 27.0867 37.9421 27.8918L39.3428 26.4642C38.3261 25.4667 37.1304 24.6939 35.7661 24.1444L35.0189 25.9996ZM37.9488 27.8983C38.7846 28.7031 39.4261 29.6452 39.8766 30.7327L41.7243 29.9673C41.1696 28.6282 40.3724 27.4555 39.3361 26.4577L37.9488 27.8983ZM39.8813 30.7439C40.344 31.8235 40.5805 33.0056 40.5805 34.302H42.5805C42.5805 32.7557 42.297 31.3032 41.7196 29.9561L39.8813 30.7439ZM40.5805 34.302C40.5805 35.5984 40.344 36.7805 39.8813 37.8601L41.7196 38.6479C42.297 37.3008 42.5805 35.8482 42.5805 34.302H40.5805ZM39.8813 37.8601C39.4123 38.9544 38.7584 39.9116 37.916 40.7383L39.317 42.1657C40.3466 41.1551 41.1486 39.9803 41.7196 38.6479L39.8813 37.8601ZM37.9161 40.7382C37.0955 41.5433 36.1246 42.1746 34.9929 42.6304L35.7401 44.4856C37.1044 43.9361 38.3001 43.1633 39.3168 42.1658L37.9161 40.7382ZM34.9929 42.6304C33.8731 43.0814 32.6491 43.312 31.3105 43.312V45.312C32.8839 45.312 34.3639 45.0399 35.7401 44.4856L34.9929 42.6304ZM31.3105 41.672C32.3145 41.672 33.2619 41.4943 34.1406 41.1264L33.3683 39.2816C32.7564 39.5377 32.0744 39.672 31.3105 39.672V41.672ZM34.1331 41.1295C35.0098 40.7709 35.7859 40.2685 36.4526 39.6219L35.0603 38.1861C34.5831 38.6489 34.0245 39.0131 33.3759 39.2785L34.1331 41.1295ZM36.4636 39.6111C37.1351 38.9396 37.6506 38.1482 38.011 37.2474L36.154 36.5046C35.8903 37.1638 35.5219 37.7243 35.0494 38.1969L36.4636 39.6111ZM38.011 37.2474C38.3753 36.3365 38.5505 35.3507 38.5505 34.302H36.5505C36.5505 35.1253 36.4137 35.8555 36.154 36.5046L38.011 37.2474ZM38.5505 34.302C38.5505 33.2537 38.3754 32.2734 38.008 31.3754L36.1569 32.1326C36.4135 32.7599 36.5505 33.4783 36.5505 34.302H38.5505ZM38.011 31.3826C37.6506 30.4818 37.135 29.6903 36.4636 29.0189L35.0494 30.4331C35.5219 30.9056 35.8903 31.4662 36.154 32.1254L38.011 31.3826ZM36.4636 29.0189C35.7919 28.3472 35.0061 27.8376 34.1149 27.4932L33.3941 29.3588C34.0282 29.6038 34.577 29.9608 35.0494 30.4331L36.4636 29.0189ZM34.1406 27.5036C33.2619 27.1357 32.3145 26.958 31.3105 26.958V28.958C32.0744 28.958 32.7564 29.0923 33.3683 29.3484L34.1406 27.5036ZM31.3105 26.958C30.3062 26.958 29.3532 27.1358 28.4619 27.5005L29.2191 29.3515C29.8531 29.0922 30.5468 28.958 31.3105 28.958V26.958ZM28.4728 27.496C27.5991 27.8415 26.8252 28.3511 26.1574 29.0189L27.5716 30.4331C28.0478 29.9569 28.5912 29.5999 29.2081 29.356L28.4728 27.496ZM26.1574 29.0189C25.4859 29.6903 24.9703 30.4818 24.61 31.3826L26.467 32.1254C26.7306 31.4662 27.0991 30.9056 27.5716 30.4331L26.1574 29.0189ZM24.6129 31.3754C24.2455 32.2734 24.0705 33.2537 24.0705 34.302H26.0705C26.0705 33.4783 26.2074 32.7599 26.464 32.1326L24.6129 31.3754ZM24.0705 34.302C24.0705 35.3507 24.2457 36.3365 24.61 37.2474L26.467 36.5046C26.2073 35.8555 26.0705 35.1253 26.0705 34.302H24.0705ZM24.61 37.2474C24.9703 38.1482 25.4859 38.9396 26.1574 39.6111L27.5716 38.1969C27.0991 37.7243 26.7306 37.1638 26.467 36.5046L24.61 37.2474ZM26.1683 39.6219C26.8313 40.2648 27.5955 40.7669 28.4543 41.1264L29.2266 39.2816C28.5948 39.0171 28.0417 38.6526 27.5606 38.1861L26.1683 39.6219ZM28.4619 41.1295C29.3532 41.4942 30.3062 41.672 31.3105 41.672V39.672C30.5468 39.672 29.8531 39.5378 29.2191 39.2785L28.4619 41.1295Z" fill="black"/>
</g>
<defs>
<filter id="filter0_d_5_4" x="0.144001" y="0.317993" width="43.4365" height="45.994" filterUnits="userSpaceOnUse" color-interpolation-filters="sRGB">
<feFlood flood-opacity="0" result="BackgroundImageFix"/>
<feColorMatrix in="SourceAlpha" type="matrix" values="0 0 0 0 0 0 0 0 0 0 0 0 0 0 0 0 0 0 127 0" result="hardAlpha"/>
<feOffset dx="2" dy="2"/>
<feComposite in2="hardAlpha" operator="out"/>
<feColorMatrix type="matrix" values="0 0 0 0 0 0 0 0 0 0 0 0 0 0 0 0 0 0 0.8 0"/>
<feBlend mode="normal" in2="BackgroundImageFix" result="effect1_dropShadow_5_4"/>
<feBlend mode="normal" in="SourceGraphic" in2="effect1_dropShadow_5_4" result="shape"/>
</filter>
</defs>
</svg>
