<svg width="297" height="101" viewBox="0 0 297 101" fill="none" xmlns="http://www.w3.org/2000/svg">
<path d="M12.8311 92.82C9.01776 92.82 6.0711 91.78 3.9911 89.7C1.9111 87.5333 0.871094 84.5433 0.871094 80.73V12.09C0.871094 8.19 1.9111 5.2 3.9911 3.12C6.15776 1.04 9.14776 0 12.9611 0H44.9411C55.3411 0 63.3578 2.55667 68.9911 7.67C74.7111 12.6967 77.5711 19.7167 77.5711 28.73C77.5711 34.5367 76.2711 39.6067 73.6711 43.94C71.1578 48.1867 67.4744 51.48 62.6211 53.82C57.8544 56.0733 51.9611 57.2 44.9411 57.2L45.9811 54.86H52.2211C55.9478 54.86 59.2411 55.77 62.1011 57.59C64.9611 59.3233 67.3444 62.01 69.2511 65.65L75.7511 77.35C77.1378 79.8633 77.7878 82.3333 77.7011 84.76C77.6144 87.1 76.6611 89.05 74.8411 90.61C73.1078 92.0833 70.5511 92.82 67.1711 92.82C63.7911 92.82 61.0178 92.1267 58.8511 90.74C56.7711 89.3533 54.9078 87.1867 53.2611 84.24L41.4311 62.53C40.3911 60.6233 39.0478 59.3233 37.4011 58.63C35.8411 57.85 34.0211 57.46 31.9411 57.46H24.7911V80.73C24.7911 84.5433 23.7944 87.5333 21.8011 89.7C19.8078 91.78 16.8178 92.82 12.8311 92.82ZM24.7911 40.56H40.6511C45.2444 40.56 48.7544 39.65 51.1811 37.83C53.6078 36.01 54.8211 33.1933 54.8211 29.38C54.8211 25.74 53.6078 23.01 51.1811 21.19C48.7544 19.2833 45.2444 18.33 40.6511 18.33H24.7911V40.56Z" fill="#EC2020"/>
<path d="M12.8311 92.82C9.01776 92.82 6.0711 91.78 3.9911 89.7C1.9111 87.5333 0.871094 84.5433 0.871094 80.73V12.09C0.871094 8.19 1.9111 5.2 3.9911 3.12C6.15776 1.04 9.14776 0 12.9611 0H44.9411C55.3411 0 63.3578 2.55667 68.9911 7.67C74.7111 12.6967 77.5711 19.7167 77.5711 28.73C77.5711 34.5367 76.2711 39.6067 73.6711 43.94C71.1578 48.1867 67.4744 51.48 62.6211 53.82C57.8544 56.0733 51.9611 57.2 44.9411 57.2L45.9811 54.86H52.2211C55.9478 54.86 59.2411 55.77 62.1011 57.59C64.9611 59.3233 67.3444 62.01 69.2511 65.65L75.7511 77.35C77.1378 79.8633 77.7878 82.3333 77.7011 84.76C77.6144 87.1 76.6611 89.05 74.8411 90.61C73.1078 92.0833 70.5511 92.82 67.1711 92.82C63.7911 92.82 61.0178 92.1267 58.8511 90.74C56.7711 89.3533 54.9078 87.1867 53.2611 84.24L41.4311 62.53C40.3911 60.6233 39.0478 59.3233 37.4011 58.63C35.8411 57.85 34.0211 57.46 31.9411 57.46H24.7911V80.73C24.7911 84.5433 23.7944 87.5333 21.8011 89.7C19.8078 91.78 16.8178 92.82 12.8311 92.82ZM24.7911 40.56H40.6511C45.2444 40.56 48.7544 39.65 51.1811 37.83C53.6078 36.01 54.8211 33.1933 54.8211 29.38C54.8211 25.74 53.6078 23.01 51.1811 21.19C48.7544 19.2833 45.2444 18.33 40.6511 18.33H24.7911V40.56Z" fill="#EC2020"/>
<path d="M103.95 88.3394C100.31 88.3394 97.45 87.0827 95.37 84.5694C93.29 82.056 92.25 78.9794 92.25 75.3394C92.25 69.0994 94.33 62.686 98.49 56.0994C99.6167 54.2794 100.917 52.5027 102.39 50.7694C103.863 48.9494 105.467 47.216 107.2 45.5694C109.8 43.056 112.53 40.976 115.39 39.3294C118.25 37.6827 121.023 36.8594 123.71 36.8594C128.13 36.8594 130.34 38.9394 130.34 43.0994C130.34 48.2994 127.307 53.0227 121.24 57.2694C115.607 61.0827 110.06 62.9894 104.6 62.9894C103.647 62.9894 102.78 62.946 102 62.8594C101.307 62.686 100.657 62.5127 100.05 62.3394C99.1833 63.986 98.4033 66.1094 97.71 68.7094C97.0167 71.3094 96.67 73.5627 96.67 75.4694C96.67 81.1894 99.1833 84.0494 104.21 84.0494C108.283 84.0494 112.14 83.356 115.78 81.9694C119.42 80.496 123.753 77.766 128.78 73.7794C131.9 71.3527 134.24 69.4027 135.8 67.9294C137.36 66.456 139.05 64.896 140.87 63.2494C141.39 62.9027 141.867 62.7294 142.3 62.7294C142.733 62.7294 143.167 62.8594 143.6 63.1194C144.033 63.3794 144.25 63.7694 144.25 64.2894C144.25 65.2427 143.383 66.586 141.65 68.3194C140.177 69.706 138.617 71.1794 136.97 72.7394C135.323 74.2127 132.723 76.2927 129.17 78.9794C125.357 81.926 121.197 84.2227 116.69 85.8694C112.183 87.516 107.937 88.3394 103.95 88.3394ZM103.82 58.8294C106.593 58.8294 109.237 58.396 111.75 57.5294C114.263 56.6627 116.647 55.406 118.9 53.7594C123.927 50.0327 126.44 46.5227 126.44 43.2294C126.44 41.756 125.53 41.0194 123.71 41.0194C120.243 41.0194 116.213 43.1427 111.62 47.3894C109.367 49.4694 107.503 51.376 106.03 53.1094C104.643 54.756 103.343 56.576 102.13 58.5694C102.65 58.7427 103.213 58.8294 103.82 58.8294Z" fill="#EC2020"/>
<path d="M156.372 89.3006C151.345 89.3006 148.832 86.9173 148.832 82.1506C148.832 79.0306 149.569 75.694 151.042 72.1406C152.602 68.5006 154.682 64.9906 157.282 61.6106C159.882 58.144 162.785 55.024 165.992 52.2506C169.199 49.3906 172.492 47.1373 175.872 45.4906C179.252 43.7573 182.502 42.8906 185.622 42.8906C191.169 42.8906 193.942 45.6206 193.942 51.0806C193.942 54.634 193.075 56.4106 191.342 56.4106C189.782 56.4106 189.002 55.674 189.002 54.2006C189.002 53.594 189.132 52.9873 189.392 52.3806C189.739 51.6873 189.912 50.9506 189.912 50.1706C189.912 47.744 188.265 46.5306 184.972 46.5306C179.685 46.5306 173.055 50.5606 165.082 58.6206C163.175 60.614 161.312 62.954 159.492 65.6406C157.672 68.3273 156.155 71.0573 154.942 73.8306C153.815 76.5173 153.252 79.074 153.252 81.5006C153.252 83.8406 154.552 85.0106 157.152 85.0106C159.405 85.0106 161.789 84.3173 164.302 82.9306C166.902 81.544 169.155 80.114 171.062 78.6406C174.875 75.7806 178.775 71.8806 182.762 66.9406C183.369 66.2473 184.149 65.3373 185.102 64.2106C186.055 63.084 187.139 61.8273 188.352 60.4406C188.785 60.0073 189.305 59.7906 189.912 59.7906C191.299 59.7906 191.992 60.484 191.992 61.8706L187.052 69.2806C183.759 74.134 182.112 78.1206 182.112 81.2406C182.112 83.494 183.195 84.6206 185.362 84.6206C187.182 84.6206 189.175 84.144 191.342 83.1906C193.509 82.2373 195.285 81.284 196.672 80.3306C199.445 78.5106 202.349 76.2573 205.382 73.5706C208.415 70.7973 211.319 68.024 214.092 65.2506C214.439 64.904 214.959 64.7306 215.652 64.7306C216.952 64.7306 217.602 65.2506 217.602 66.2906C217.602 67.244 216.995 68.3273 215.782 69.5406C212.315 73.0073 209.195 75.9973 206.422 78.5106C203.649 80.9373 201.005 82.9306 198.492 84.4906C196.845 85.444 194.809 86.4406 192.382 87.4806C189.955 88.5206 187.182 89.0406 184.062 89.0406C179.815 89.0406 177.692 86.7873 177.692 82.2806C177.692 80.5473 177.909 79.1173 178.342 77.9906C170.455 85.5306 163.132 89.3006 156.372 89.3006Z" fill="#E11D1D"/>
<path d="M269.124 100.569C268.43 100.569 267.564 100.222 266.524 99.5286C265.57 98.9219 264.834 98.3153 264.314 97.7086C263.274 96.4086 262.58 94.8486 262.234 93.0286C261.887 91.2086 261.714 89.2153 261.714 87.0486C261.714 85.2286 261.757 83.2786 261.844 81.1986C262.017 79.0319 262.277 76.7353 262.624 74.3086C260.37 76.9086 257.814 79.4653 254.954 81.9786C252.18 84.4053 249.32 86.3986 246.374 87.9586C243.514 89.5186 240.784 90.2986 238.184 90.2986C231.684 90.2986 228.434 86.8319 228.434 79.8986C228.434 72.7053 230.947 65.7719 235.974 59.0986C238.487 55.8053 241.347 52.6419 244.554 49.6086C247.76 46.5753 251.14 44.1053 254.694 42.1986C258.247 40.2919 261.757 39.3386 265.224 39.3386C267.824 39.3386 270.12 40.3353 272.114 42.3286C272.287 41.9819 272.504 41.4186 272.764 40.6386C273.11 39.8586 273.587 38.8619 274.194 37.6486C276.274 33.1419 278.57 28.4619 281.084 23.6086C283.597 18.6686 285.85 14.5953 287.844 11.3886C290.097 7.83526 292.22 6.05859 294.214 6.05859C295.6 6.05859 296.294 7.14193 296.294 9.30859C296.294 13.0353 292.784 21.7453 285.764 35.4386C285.33 36.2186 284.55 37.6486 283.424 39.7286C282.384 41.7219 281.127 44.0619 279.654 46.7486C278.267 49.3486 276.837 51.9486 275.364 54.5486C273.89 57.1486 272.547 59.4886 271.334 61.5686C270.207 63.5619 269.384 64.9486 268.864 65.7286C267.91 69.6286 267.174 73.3553 266.654 76.9086C266.134 80.3753 265.874 83.9719 265.874 87.6986C265.874 89.0853 265.917 90.3419 266.004 91.4686C266.177 92.6819 266.524 93.6353 267.044 94.3286C267.477 94.8486 267.954 95.2386 268.474 95.4986C268.994 95.8453 269.6 96.1486 270.294 96.4086C271.334 96.6686 271.854 97.2753 271.854 98.2286C271.854 99.7886 270.944 100.569 269.124 100.569ZM275.234 46.2286C278.527 40.5953 281.43 35.3519 283.944 30.4986C286.457 25.5586 288.494 20.9219 290.054 16.5886C286.587 21.0953 283.684 25.8619 281.344 30.8886C279.004 35.9153 276.967 41.0286 275.234 46.2286ZM237.274 86.3986C239.787 86.3986 242.43 85.5753 245.204 83.9286C248.064 82.1953 250.75 80.1586 253.264 77.8186C255.517 75.7386 257.597 73.6153 259.504 71.4486C261.41 69.1953 263.187 66.8986 264.834 64.5586C265.527 61.5253 266.307 58.5353 267.174 55.5886C268.127 52.6419 269.167 49.6953 270.294 46.7486C268.907 44.5819 266.957 43.4986 264.444 43.4986C261.844 43.4986 258.94 44.4953 255.734 46.4886C252.614 48.3953 249.58 50.7786 246.634 53.6386C243.774 56.4986 241.304 59.2286 239.224 61.8286C234.89 67.6353 232.724 73.7886 232.724 80.2886C232.724 84.3619 234.24 86.3986 237.274 86.3986Z" fill="#EC2020"/>
</svg>
